<svg width="539" height="90" viewBox="0 0 539 90" fill="none" xmlns="http://www.w3.org/2000/svg">
<g clip-path="url(#clip0_16_4627)">
<path d="M9.71981 68.9576C6.79264 67.7271 4.43157 65.9091 2.66422 63.5039C0.883064 61.0987 -0.000610352 58.274 -0.000610352 55.0018H9.27797C9.27797 57.1413 10.2445 58.8333 12.1913 60.1059C14.1382 61.3784 16.5821 62.0077 19.5507 62.0077C22.5193 62.0077 24.908 61.4064 26.5649 60.2037C28.2079 59.0011 29.0364 57.407 29.0364 55.4073C29.0364 53.2118 28.1113 51.6456 26.2749 50.7087C24.4385 49.7718 21.5666 48.8768 17.6867 48.0098C14.1382 47.2128 11.2386 46.3877 9.00182 45.5627C6.76502 44.7236 4.83198 43.3252 3.23032 41.3675C1.61486 39.3958 0.814027 36.7109 0.814027 33.3128C0.814027 30.572 1.61486 28.1528 3.23032 26.0133C4.84579 23.8737 7.04117 22.2097 9.84408 21.007C12.647 19.8044 15.7122 19.2031 19.0812 19.2031C24.3419 19.2031 28.6774 20.5316 32.0602 23.2025C35.443 25.8734 37.1413 29.5372 37.1413 34.2078H27.8628C27.8628 32.3479 26.9929 30.8237 25.2393 29.663C23.4996 28.5024 21.3733 27.9151 18.8741 27.9151C16.375 27.9151 14.4281 28.4884 12.8541 29.6211C11.28 30.7538 10.4792 32.2221 10.4792 34.026C10.4792 35.8299 11.3353 37.2423 13.0474 38.0813C14.7595 38.9203 17.452 39.7594 21.1385 40.6264C24.7561 41.4234 27.7523 42.2625 30.1272 43.1295C32.502 43.9965 34.5179 45.4508 36.2024 47.4785C37.8869 49.5201 38.7154 52.3029 38.7154 55.8268C38.7154 60.6932 36.9204 64.4129 33.3305 66.9719C29.7406 69.531 25.0875 70.8175 19.3574 70.8175C15.8641 70.8175 12.6608 70.2022 9.73362 68.9716L9.71981 68.9576Z" fill="white"/>
<path d="M55.8778 67.3495C51.9979 65.0561 48.905 61.9237 46.5992 57.9523C44.2934 53.9809 43.1473 49.6739 43.1473 45.0033C43.1473 40.3327 44.2934 36.0257 46.5992 32.0543C48.905 28.0829 51.9979 24.9505 55.8778 22.6571C59.7577 20.3638 64.0103 19.2031 68.6082 19.2031C73.2061 19.2031 77.4588 20.3498 81.3525 22.6571C85.2323 24.9505 88.3114 28.0968 90.5896 32.0543C92.8678 36.0257 94 40.3327 94 45.0033V70.0064H84.321V62.1055C83.1336 64.5667 81.0763 66.6363 78.1491 68.3004C75.222 69.9644 72.0463 70.8035 68.622 70.8035C64.0103 70.8035 59.7715 69.6568 55.8916 67.3495H55.8778ZM76.7132 59.1549C79.088 57.7286 80.9658 55.7569 82.3466 53.2538C83.7273 50.7507 84.4177 48.0098 84.4177 45.0033C84.4177 41.9968 83.7411 39.2559 82.388 36.7528C81.0349 34.2497 79.1571 32.292 76.7546 30.8517C74.3521 29.4113 71.6735 28.6982 68.7049 28.6982C65.7363 28.6982 63.0438 29.4113 60.6137 30.8517C58.1836 32.292 56.2644 34.2497 54.8836 36.7528C53.5029 39.2559 52.8125 41.9968 52.8125 45.0033C52.8125 48.0098 53.5167 50.7507 54.9389 53.2538C56.361 55.7569 58.2665 57.7286 60.6689 59.1549C63.0714 60.5953 65.7501 61.3085 68.7187 61.3085C71.6873 61.3085 74.3521 60.5953 76.7132 59.1549Z" fill="white"/>
<path d="M102.63 11.3625C101.484 10.2018 100.904 8.77545 100.904 7.11137C100.904 5.44729 101.484 3.95102 102.63 2.80435C103.776 1.67166 105.184 1.1123 106.827 1.1123C108.47 1.1123 109.851 1.69963 110.969 2.86028C112.088 4.02094 112.654 5.44729 112.654 7.11137C112.654 8.77545 112.088 10.2018 110.969 11.3625C109.851 12.5231 108.47 13.1104 106.827 13.1104C105.184 13.1104 103.776 12.5231 102.63 11.3625ZM101.994 20.0185H111.673V70.0247H101.994V20.0045V20.0185Z" fill="white"/>
<path d="M129.542 85.7451C125.33 82.9063 122.238 79.1587 120.263 74.5021H131.917C135.009 78.5014 138.889 80.5011 143.57 80.5011C146.401 80.5011 148.996 79.9138 151.371 78.7531C153.746 77.5925 155.638 75.9424 157.046 73.8029C158.454 71.6633 159.172 69.2302 159.172 66.5033V64.21C157.198 66.2796 154.864 67.8877 152.158 69.0623C149.452 70.223 146.594 70.8103 143.57 70.8103C138.958 70.8103 134.706 69.6637 130.784 67.3563C126.863 65.063 123.77 61.9306 121.506 57.9592C119.241 53.9878 118.095 49.6807 118.095 45.0101C118.095 40.3395 119.228 36.0325 121.506 32.0611C123.77 28.0897 126.863 24.9573 130.784 22.664C134.706 20.3706 138.958 19.21 143.57 19.21C148.182 19.21 152.434 20.3566 156.356 22.664C160.277 24.9573 163.37 28.1037 165.634 32.0611C167.899 36.0325 169.045 40.3395 169.045 45.0101V64.21C169.045 68.8806 167.912 73.1876 165.634 77.159C163.356 81.1304 160.263 84.2628 156.356 86.5561C152.434 88.8495 148.182 90.0101 143.57 90.0101C138.434 90.0101 133.767 88.5978 129.555 85.7591L129.542 85.7451ZM151.661 59.1478C154.036 57.7215 155.914 55.7497 157.295 53.2466C158.675 50.7435 159.366 48.0027 159.366 44.9962C159.366 41.9896 158.689 39.2488 157.336 36.7457C155.983 34.2426 154.105 32.2848 151.703 30.8445C149.3 29.4042 146.621 28.691 143.653 28.691C140.684 28.691 137.992 29.4042 135.562 30.8445C133.132 32.2848 131.212 34.2426 129.832 36.7457C128.451 39.2488 127.761 41.9896 127.761 44.9962C127.761 48.0027 128.465 50.7435 129.887 53.2466C131.309 55.7497 133.214 57.7215 135.617 59.1478C138.019 60.5881 140.698 61.3013 143.667 61.3013C146.635 61.3013 149.3 60.5881 151.661 59.1478Z" fill="white"/>
<path d="M212.731 22.6571C216.652 24.9505 219.745 28.0968 222.009 32.0543C224.274 36.0257 225.42 40.3327 225.42 45.0033C225.42 49.6739 224.287 53.9809 222.009 57.9523C219.731 61.9237 216.638 65.0561 212.731 67.3495C208.809 69.6568 204.557 70.8035 199.945 70.8035C195.333 70.8035 191.081 69.6568 187.159 67.3495C183.238 65.0561 180.145 61.9237 177.881 57.9523C175.616 53.9809 174.47 49.6739 174.47 45.0033C174.47 40.3327 175.602 36.0257 177.881 32.0543C180.145 28.0829 183.238 24.9505 187.159 22.6571C191.081 20.3638 195.333 19.2031 199.945 19.2031C204.557 19.2031 208.809 20.3498 212.731 22.6571ZM191.95 30.8517C189.52 32.292 187.601 34.2497 186.22 36.7528C184.84 39.2559 184.149 41.9968 184.149 45.0033C184.149 48.0098 184.853 50.7507 186.276 53.2538C187.698 55.7569 189.603 57.7286 192.006 59.1549C194.408 60.5953 197.087 61.3085 200.055 61.3085C203.024 61.3085 205.689 60.5953 208.05 59.1549C210.425 57.7286 212.303 55.7569 213.683 53.2538C215.064 50.7507 215.754 48.0098 215.754 45.0033C215.754 41.9968 215.078 39.2559 213.725 36.7528C212.372 34.2497 210.494 32.292 208.091 30.8517C205.689 29.4113 203.01 28.6982 200.042 28.6982C197.073 28.6982 194.381 29.4113 191.95 30.8517Z" fill="white"/>
<path d="M274.281 70.0064H264.603V43.7028C264.603 38.6966 263.567 34.9489 261.496 32.4598C259.425 29.9567 256.442 28.7121 252.562 28.7121C248.683 28.7121 245.7 29.9567 243.629 32.4598C241.558 34.9629 240.522 38.7106 240.522 43.7028V70.0064H230.843V43.7028C230.843 35.5642 232.818 29.4533 236.767 25.356C240.716 21.2587 245.976 19.2031 252.562 19.2031C259.149 19.2031 264.409 21.2587 268.358 25.356C272.307 29.4533 274.281 35.5782 274.281 43.7028V70.0064Z" fill="white"/>
<path d="M341.774 57.948C339.51 61.9195 336.431 65.0518 332.537 67.3452C328.657 69.6525 324.405 70.7992 319.793 70.7992C315.181 70.7992 310.942 69.6525 307.062 67.3452C303.183 65.0518 300.09 61.9195 297.784 57.948C295.478 53.9766 294.332 49.6696 294.332 44.999C294.332 40.3284 295.478 36.0214 297.784 32.05C300.09 28.0786 303.183 24.9462 307.062 22.6528C310.942 20.3595 315.195 19.1988 319.793 19.1988C323.024 19.1988 325.951 19.8281 328.574 21.1006C331.212 22.3732 333.476 24.1351 335.381 26.4005V-0.000976562H345.157V44.999C345.157 49.6696 344.025 53.9766 341.747 57.948H341.774ZM311.757 30.8474C309.354 32.2877 307.463 34.2454 306.082 36.7486C304.701 39.2517 304.011 41.9925 304.011 44.999C304.011 48.0055 304.701 50.7464 306.082 53.2495C307.463 55.7526 309.354 57.7243 311.757 59.1507C314.159 60.591 316.838 61.3042 319.807 61.3042C322.775 61.3042 325.454 60.591 327.856 59.1507C330.259 57.7243 332.151 55.7526 333.531 53.2495C334.912 50.7464 335.602 48.0055 335.602 44.999C335.602 41.9925 334.912 39.2517 333.531 36.7486C332.151 34.2454 330.245 32.2877 327.801 30.8474C325.371 29.407 322.692 28.6939 319.807 28.6939C316.921 28.6939 314.159 29.407 311.757 30.8474Z" fill="white"/>
<path d="M354.808 11.3625C353.662 10.2018 353.082 8.77545 353.082 7.11137C353.082 5.44729 353.662 3.95102 354.808 2.80435C355.954 1.67166 357.362 1.1123 359.005 1.1123C360.648 1.1123 362.029 1.69963 363.147 2.86028C364.266 4.02094 364.832 5.44729 364.832 7.11137C364.832 8.77545 364.266 10.2018 363.147 11.3625C362.029 12.5231 360.648 13.1104 359.005 13.1104C357.362 13.1104 355.954 12.5231 354.808 11.3625ZM354.173 20.0185H363.852V70.0247H354.173V20.0045V20.0185Z" fill="white"/>
<path d="M381.72 85.7451C377.508 82.9063 374.416 79.1587 372.441 74.5021H384.095C387.187 78.5014 391.067 80.5011 395.748 80.5011C398.579 80.5011 401.174 79.9138 403.549 78.7531C405.924 77.5925 407.816 75.9424 409.224 73.8029C410.632 71.6633 411.35 69.2302 411.35 66.5033V64.21C409.376 66.2796 407.043 67.8877 404.336 69.0623C401.63 70.223 398.772 70.8103 395.748 70.8103C391.136 70.8103 386.884 69.6637 382.962 67.3563C379.041 65.063 375.948 61.9306 373.684 57.9592C371.419 53.9878 370.273 49.6807 370.273 45.0101C370.273 40.3395 371.406 36.0325 373.684 32.0611C375.948 28.0897 379.041 24.9573 382.962 22.664C386.884 20.3706 391.136 19.21 395.748 19.21C400.36 19.21 404.612 20.3566 408.534 22.664C412.455 24.9573 415.548 28.1037 417.812 32.0611C420.077 36.0325 421.223 40.3395 421.223 45.0101V64.21C421.223 68.8806 420.091 73.1876 417.812 77.159C415.534 81.1304 412.441 84.2628 408.534 86.5561C404.612 88.8495 400.36 90.0101 395.748 90.0101C390.612 90.0101 385.945 88.5978 381.734 85.7591L381.72 85.7451ZM403.839 59.1478C406.214 57.7215 408.092 55.7497 409.473 53.2466C410.853 50.7435 411.544 48.0027 411.544 44.9962C411.544 41.9896 410.867 39.2488 409.514 36.7457C408.161 34.2426 406.283 32.2848 403.881 30.8445C401.478 29.4042 398.8 28.691 395.831 28.691C392.862 28.691 390.17 29.4042 387.74 30.8445C385.31 32.2848 383.39 34.2426 382.01 36.7457C380.629 39.2488 379.939 41.9896 379.939 44.9962C379.939 48.0027 380.643 50.7435 382.065 53.2466C383.487 55.7497 385.393 57.7215 387.795 59.1478C390.197 60.5881 392.876 61.3013 395.845 61.3013C398.813 61.3013 401.478 60.5881 403.839 59.1478Z" fill="white"/>
<path d="M428.858 11.3625C427.712 10.2018 427.132 8.77545 427.132 7.11137C427.132 5.44729 427.712 3.95102 428.858 2.80435C430.004 1.67166 431.412 1.1123 433.055 1.1123C434.698 1.1123 436.079 1.69963 437.197 2.86028C438.316 4.02094 438.882 5.44729 438.882 7.11137C438.882 8.77545 438.316 10.2018 437.197 11.3625C436.079 12.5231 434.698 13.1104 433.055 13.1104C431.412 13.1104 430.004 12.5231 428.858 11.3625ZM428.222 20.0185H437.901V70.0247H428.222V20.0045V20.0185Z" fill="white"/>
<path d="M458.432 29.4991V46.2937C458.432 50.9643 459.316 54.4603 461.097 56.7956C462.878 59.1309 465.543 60.4594 469.091 60.795V70.29C462.906 70.0243 457.99 67.9128 454.331 63.9413C450.672 59.9699 448.822 54.1247 448.753 46.3916V29.4991H441.449V20.0041H448.753V2.09082H458.432V19.9901H469.091V29.4852H458.432V29.4991Z" fill="white"/>
<path d="M484.296 67.3495C480.416 65.0561 477.323 61.9237 475.018 57.9523C472.712 53.9809 471.566 49.6739 471.566 45.0033C471.566 40.3327 472.712 36.0257 475.018 32.0543C477.323 28.0829 480.416 24.9505 484.296 22.6571C488.176 20.3638 492.429 19.2031 497.027 19.2031C501.625 19.2031 505.877 20.3498 509.771 22.6571C513.651 24.9505 516.73 28.0968 519.008 32.0543C521.286 36.0257 522.418 40.3327 522.418 45.0033V70.0064H512.739V62.1055C511.552 64.5667 509.495 66.6363 506.568 68.3004C503.64 69.9644 500.465 70.8035 497.04 70.8035C492.429 70.8035 488.19 69.6568 484.31 67.3495H484.296ZM505.132 59.1549C507.506 57.7286 509.384 55.7569 510.765 53.2538C512.146 50.7507 512.836 48.0098 512.836 45.0033C512.836 41.9968 512.16 39.2559 510.806 36.7528C509.453 34.2497 507.576 32.292 505.173 30.8517C502.771 29.4113 500.092 28.6982 497.123 28.6982C494.155 28.6982 491.462 29.4113 489.032 30.8517C486.602 32.292 484.683 34.2497 483.302 36.7528C481.921 39.2559 481.231 41.9968 481.231 45.0033C481.231 48.0098 481.935 50.7507 483.357 53.2538C484.779 55.7569 486.685 57.7286 489.087 59.1549C491.49 60.5953 494.169 61.3085 497.137 61.3085C500.106 61.3085 502.771 60.5953 505.132 59.1549Z" fill="white"/>
<path d="M529.32 70.0021V-0.000976562H538.999V70.0021H529.32Z" fill="white"/>
<path d="M282.539 68.2926C281.365 67.1039 280.785 65.6356 280.785 63.9016C280.785 62.1676 281.365 60.7693 282.539 59.5806C283.712 58.392 285.162 57.8047 286.874 57.8047C288.586 57.8047 289.967 58.392 291.141 59.5806C292.314 60.7693 292.894 62.2096 292.894 63.9016C292.894 65.5937 292.314 67.1039 291.141 68.2926C289.967 69.4812 288.545 70.0685 286.874 70.0685C285.204 70.0685 283.712 69.4812 282.539 68.2926Z" fill="white"/>
</g>
<defs>
<clipPath id="clip0_16_4627">
<rect width="539" height="90" fill="white"/>
</clipPath>
</defs>
</svg>
