<svg class="max-w-full" width="420" height="68" viewBox="0 0 420 68" fill="none" xmlns="http://www.w3.org/2000/svg">
	<path d="M14.1772 51.1896C11.519 51.1896 9.13502 50.7472 7.02532 49.8625C4.91561 48.9356 3.24895 47.6716 2.02532 46.0706C0.801688 44.4275 0.126582 42.5527 0 40.4461H5.94937C6.11814 42.1735 6.91983 43.5849 8.35443 44.6803C9.83123 45.7757 11.7511 46.3234 14.1139 46.3234C16.308 46.3234 18.038 45.8389 19.3038 44.8699C20.5696 43.9009 21.2025 42.6791 21.2025 41.2045C21.2025 39.6877 20.5274 38.5713 19.1772 37.855C17.827 37.0967 15.7384 36.3594 12.9114 35.6431C10.3376 34.969 8.22785 34.2949 6.58228 33.6208C4.9789 32.9046 3.5865 31.8724 2.40506 30.5242C1.26582 29.1338 0.696203 27.3222 0.696203 25.0892C0.696203 23.3197 1.22363 21.6976 2.27848 20.223C3.33333 18.7485 4.83122 17.5898 6.77215 16.7472C8.71308 15.8625 10.9283 15.4201 13.4177 15.4201C17.2574 15.4201 20.3587 16.3891 22.7215 18.3271C25.0844 20.2652 26.3502 22.9195 26.519 26.29H20.7595C20.6329 24.4783 19.8945 23.0248 18.5443 21.9294C17.2363 20.834 15.4641 20.2862 13.2279 20.2862C11.1603 20.2862 9.51477 20.7286 8.29114 21.6134C7.06751 22.4981 6.4557 23.6568 6.4557 25.0892C6.4557 26.2268 6.81435 27.1747 7.53165 27.9331C8.29114 28.6493 9.21941 29.2392 10.3165 29.7026C11.4557 30.1239 13.0169 30.6084 15 31.1561C17.4895 31.8302 19.5148 32.5043 21.076 33.1784C22.6371 33.8104 23.9662 34.7794 25.0633 36.0855C26.2025 37.3916 26.7933 39.0979 26.8354 41.2045C26.8354 43.1004 26.308 44.8067 25.2532 46.3234C24.1983 47.8401 22.7004 49.0409 20.7595 49.9257C18.8608 50.7683 16.6667 51.1896 14.1772 51.1896Z" fill="black" class="svg-elem-1">
	</path>
	<path d="M31.2317 33.1784C31.2317 29.6394 31.949 26.5428 33.3836 23.8885C34.8182 21.1921 36.7802 19.1066 39.2697 17.632C41.8013 16.1574 44.6072 15.4201 47.6874 15.4201C50.7254 15.4201 53.3625 16.0731 55.5988 17.3792C57.8351 18.6853 59.5018 20.3284 60.5988 22.3086V15.9888H66.4216V50.6208H60.5988V44.1747C59.4596 46.197 57.7507 47.8823 55.4722 49.2305C53.2359 50.5366 50.6199 51.1896 47.6241 51.1896C44.5439 51.1896 41.7591 50.4312 39.2697 48.9145C36.7802 47.3978 34.8182 45.2701 33.3836 42.5316C31.949 39.7931 31.2317 36.6753 31.2317 33.1784ZM60.5988 33.2416C60.5988 30.6295 60.0714 28.3544 59.0165 26.4164C57.9617 24.4783 56.5271 23.0037 54.7127 21.9926C52.9406 20.9393 50.9785 20.4126 48.8266 20.4126C46.6747 20.4126 44.7127 20.9182 42.9406 21.9294C41.1684 22.9405 39.7549 24.4151 38.7001 26.3532C37.6452 28.2912 37.1178 30.5663 37.1178 33.1784C37.1178 35.8327 37.6452 38.1499 38.7001 40.1301C39.7549 42.0682 41.1684 43.5638 42.9406 44.6171C44.7127 45.6283 46.6747 46.1338 48.8266 46.1338C50.9785 46.1338 52.9406 45.6283 54.7127 44.6171C56.5271 43.5638 57.9617 42.0682 59.0165 40.1301C60.0714 38.1499 60.5988 35.8538 60.5988 33.2416Z" fill="black" class="svg-elem-2">
	</path>
	<path d="M77.547 10.3643C76.4499 10.3643 75.5217 9.98513 74.7622 9.22677C74.0027 8.4684 73.6229 7.54151 73.6229 6.4461C73.6229 5.35068 74.0027 4.42379 74.7622 3.66543C75.5217 2.90706 76.4499 2.52788 77.547 2.52788C78.6018 2.52788 79.4879 2.90706 80.2052 3.66543C80.9647 4.42379 81.3444 5.35068 81.3444 6.4461C81.3444 7.54151 80.9647 8.4684 80.2052 9.22677C79.4879 9.98513 78.6018 10.3643 77.547 10.3643ZM80.3318 15.9888V50.6208H74.5723V15.9888H80.3318Z" fill="black" class="svg-elem-3">
	</path>
	<path d="M102.869 15.4201C105.865 15.4201 108.481 16.0731 110.717 17.3792C112.996 18.6853 114.684 20.3284 115.781 22.3086V15.9888H121.604V51.3792C121.604 54.539 120.928 57.3408 119.578 59.7844C118.228 62.2701 116.287 64.2082 113.755 65.5985C111.266 66.9889 108.355 67.684 105.021 67.684C100.464 67.684 96.6668 66.6097 93.6289 64.461C90.5909 62.3123 88.7976 59.3841 88.2491 55.6766H93.9453C94.5782 57.7831 95.8862 59.4684 97.8694 60.7323C99.8525 62.0384 102.236 62.6914 105.021 62.6914C108.186 62.6914 110.76 61.7014 112.743 59.7212C114.768 57.741 115.781 54.9603 115.781 51.3792V44.1115C114.642 46.1338 112.954 47.8191 110.717 49.1673C108.481 50.5155 105.865 51.1896 102.869 51.1896C99.7892 51.1896 96.9833 50.4312 94.4517 48.9145C91.9622 47.3978 90.0002 45.2701 88.5656 42.5316C87.131 39.7931 86.4137 36.6753 86.4137 33.1784C86.4137 29.6394 87.131 26.5428 88.5656 23.8885C90.0002 21.1921 91.9622 19.1066 94.4517 17.632C96.9833 16.1574 99.7892 15.4201 102.869 15.4201ZM115.781 33.2416C115.781 30.6295 115.253 28.3544 114.198 26.4164C113.144 24.4783 111.709 23.0037 109.895 21.9926C108.123 20.9393 106.161 20.4126 104.009 20.4126C101.857 20.4126 99.8947 20.9182 98.1225 21.9294C96.3504 22.9405 94.9369 24.4151 93.882 26.3532C92.8272 28.2912 92.2997 30.5663 92.2997 33.1784C92.2997 35.8327 92.8272 38.1499 93.882 40.1301C94.9369 42.0682 96.3504 43.5638 98.1225 44.6171C99.8947 45.6283 101.857 46.1338 104.009 46.1338C106.161 46.1338 108.123 45.6283 109.895 44.6171C111.709 43.5638 113.144 42.0682 114.198 40.1301C115.253 38.1499 115.781 35.8538 115.781 33.2416Z" fill="black" class="svg-elem-4">
	</path>
	<path d="M144.881 51.1896C141.632 51.1896 138.678 50.4523 136.02 48.9777C133.404 47.5031 131.337 45.4176 129.818 42.7212C128.341 39.9827 127.602 36.8228 127.602 33.2416C127.602 29.7026 128.362 26.5849 129.881 23.8885C131.442 21.1499 133.552 19.0644 136.21 17.632C138.868 16.1574 141.843 15.4201 145.134 15.4201C148.425 15.4201 151.4 16.1574 154.058 17.632C156.716 19.0644 158.805 21.1289 160.324 23.8253C161.885 26.5217 162.666 29.6605 162.666 33.2416C162.666 36.8228 161.864 39.9827 160.261 42.7212C158.699 45.4176 156.569 47.5031 153.868 48.9777C151.168 50.4523 148.172 51.1896 144.881 51.1896ZM144.881 46.1338C146.948 46.1338 148.889 45.6493 150.704 44.6803C152.518 43.7113 153.974 42.2577 155.071 40.3197C156.21 38.3817 156.78 36.0223 156.78 33.2416C156.78 30.461 156.231 28.1016 155.134 26.1636C154.037 24.2255 152.602 22.7931 150.83 21.8662C149.058 20.8972 147.138 20.4126 145.071 20.4126C142.961 20.4126 141.02 20.8972 139.248 21.8662C137.518 22.7931 136.126 24.2255 135.071 26.1636C134.016 28.1016 133.488 30.461 133.488 33.2416C133.488 36.0644 133.995 38.4449 135.007 40.3829C136.062 42.3209 137.455 43.7745 139.185 44.7435C140.915 45.6704 142.813 46.1338 144.881 46.1338Z" fill="black" class="svg-elem-5">
	</path>
	<path d="M185.555 15.3569C189.774 15.3569 193.192 16.6419 195.808 19.2119C198.424 21.7398 199.732 25.4052 199.732 30.2082V50.6208H194.036V31.0297C194.036 27.575 193.171 24.9418 191.441 23.1301C189.711 21.2763 187.348 20.3494 184.352 20.3494C181.314 20.3494 178.888 21.2974 177.074 23.1933C175.302 25.0892 174.416 27.8488 174.416 31.4721V50.6208H168.656V15.9888H174.416V20.9182C175.555 19.1487 177.095 17.7794 179.036 16.8104C181.019 15.8414 183.192 15.3569 185.555 15.3569Z" fill="black" class="svg-elem-6">
	</path>
	<path d="M206.392 32.9257C206.392 29.3024 207.068 26.1214 208.418 23.3829C209.81 20.6444 211.688 18.5378 214.051 17.0632C216.414 15.5886 219.051 14.8513 221.962 14.8513C224.283 14.8513 226.392 15.3358 228.291 16.3048C230.232 17.2739 231.751 18.5799 232.848 20.223V3.85502H243.671V50.6208H232.848V45.5651C231.835 47.2503 230.38 48.5985 228.481 49.6097C226.624 50.6208 224.452 51.1264 221.962 51.1264C219.051 51.1264 216.414 50.3891 214.051 48.9145C211.688 47.3978 209.81 45.2701 208.418 42.5316C207.068 39.7509 206.392 36.5489 206.392 32.9257ZM232.848 32.9888C232.848 30.2924 232.089 28.1648 230.57 26.6059C229.093 25.0471 227.279 24.2677 225.127 24.2677C222.975 24.2677 221.139 25.0471 219.62 26.6059C218.143 28.1227 217.405 30.2292 217.405 32.9257C217.405 35.6221 218.143 37.7708 219.62 39.3717C221.139 40.9306 222.975 41.71 225.127 41.71C227.279 41.71 229.093 40.9306 230.57 39.3717C232.089 37.8129 232.848 35.6853 232.848 32.9888Z" fill="#3165F5" class="svg-elem-7">
	</path>
	<path d="M255.361 11.6914C253.463 11.6914 251.902 11.1437 250.678 10.0483C249.497 8.91078 248.906 7.52045 248.906 5.87733C248.906 4.19207 249.497 2.80174 250.678 1.70632C251.902 0.568773 253.463 0 255.361 0C257.218 0 258.737 0.568773 259.918 1.70632C261.142 2.80174 261.754 4.19207 261.754 5.87733C261.754 7.52045 261.142 8.91078 259.918 10.0483C258.737 11.1437 257.218 11.6914 255.361 11.6914ZM260.741 15.3569V50.6208H249.918V15.3569H260.741Z" fill="#3165F5" class="svg-elem-8">
	</path>
	<path d="M280.42 14.8513C282.909 14.8513 285.082 15.3569 286.939 16.368C288.838 17.3792 290.293 18.7063 291.306 20.3494V15.3569H302.129V50.5576C302.129 53.8017 301.475 56.7299 300.167 59.342C298.901 61.9963 296.939 64.1029 294.281 65.6617C291.665 67.2206 288.395 68 284.47 68C279.238 68 274.998 66.7571 271.749 64.2714C268.5 61.8278 266.643 58.4994 266.179 54.2862H276.876C277.213 55.6345 278.015 56.6877 279.281 57.4461C280.546 58.2466 282.108 58.6468 283.964 58.6468C286.2 58.6468 287.973 57.9938 289.281 56.6877C290.631 55.4238 291.306 53.3804 291.306 50.5576V45.5651C290.251 47.2082 288.795 48.5564 286.939 49.6097C285.082 50.6208 282.909 51.1264 280.42 51.1264C277.508 51.1264 274.871 50.3891 272.508 48.9145C270.146 47.3978 268.268 45.2701 266.876 42.5316C265.525 39.7509 264.85 36.5489 264.85 32.9257C264.85 29.3024 265.525 26.1214 266.876 23.3829C268.268 20.6444 270.146 18.5378 272.508 17.0632C274.871 15.5886 277.508 14.8513 280.42 14.8513ZM291.306 32.9888C291.306 30.2924 290.546 28.1648 289.027 26.6059C287.551 25.0471 285.736 24.2677 283.584 24.2677C281.432 24.2677 279.597 25.0471 278.078 26.6059C276.601 28.1227 275.863 30.2292 275.863 32.9257C275.863 35.6221 276.601 37.7708 278.078 39.3717C279.597 40.9306 281.432 41.71 283.584 41.71C285.736 41.71 287.551 40.9306 289.027 39.3717C290.546 37.8129 291.306 35.6853 291.306 32.9888Z" fill="#3165F5" class="svg-elem-9">
	</path>
	<path d="M313.819 11.6914C311.921 11.6914 310.359 11.1437 309.136 10.0483C307.954 8.91078 307.364 7.52045 307.364 5.87733C307.364 4.19207 307.954 2.80174 309.136 1.70632C310.359 0.568773 311.921 0 313.819 0C315.676 0 317.195 0.568773 318.376 1.70632C319.6 2.80174 320.212 4.19207 320.212 5.87733C320.212 7.52045 319.6 8.91078 318.376 10.0483C317.195 11.1437 315.676 11.6914 313.819 11.6914ZM319.199 15.3569V50.6208H308.376V15.3569H319.199Z" fill="#3165F5" class="svg-elem-10">
	</path>
	<path d="M345.143 41.4573V50.6208H339.637C335.713 50.6208 332.654 49.6729 330.46 47.777C328.266 45.8389 327.169 42.7001 327.169 38.3606V24.3309H322.865V15.3569H327.169V6.76208H337.992V15.3569H345.08V24.3309H337.992V38.487C337.992 39.5403 338.245 40.2986 338.751 40.7621C339.257 41.2255 340.101 41.4573 341.283 41.4573H345.143Z" fill="#3165F5" class="svg-elem-11">
	</path>
	<path d="M347.438 32.9257C347.438 29.3024 348.113 26.1214 349.463 23.3829C350.855 20.6444 352.733 18.5378 355.096 17.0632C357.459 15.5886 360.096 14.8513 363.007 14.8513C365.497 14.8513 367.67 15.3569 369.526 16.368C371.425 17.3792 372.881 18.7063 373.893 20.3494V15.3569H384.716V50.6208H373.893V45.6283C372.839 47.2714 371.362 48.5985 369.463 49.6097C367.607 50.6208 365.433 51.1264 362.944 51.1264C360.075 51.1264 357.459 50.3891 355.096 48.9145C352.733 47.3978 350.855 45.2701 349.463 42.5316C348.113 39.7509 347.438 36.5489 347.438 32.9257ZM373.893 32.9888C373.893 30.2924 373.134 28.1648 371.615 26.6059C370.138 25.0471 368.324 24.2677 366.172 24.2677C364.02 24.2677 362.185 25.0471 360.666 26.6059C359.189 28.1227 358.45 30.2292 358.45 32.9257C358.45 35.6221 359.189 37.7708 360.666 39.3717C362.185 40.9306 364.02 41.71 366.172 41.71C368.324 41.71 370.138 40.9306 371.615 39.3717C373.134 37.8129 373.893 35.6853 373.893 32.9888Z" fill="#3165F5" class="svg-elem-12">
	</path>
	<path d="M401.787 3.85502V50.6208H390.964V3.85502H401.787Z" fill="#3165F5" class="svg-elem-13">
	</path>
	<path d="M413.608 51.1264C411.709 51.1264 410.148 50.5787 408.924 49.4833C407.743 48.3457 407.152 46.9554 407.152 45.3123C407.152 43.627 407.743 42.2156 408.924 41.0781C410.148 39.9405 411.709 39.3717 413.608 39.3717C415.464 39.3717 416.983 39.9405 418.165 41.0781C419.388 42.2156 420 43.627 420 45.3123C420 46.9554 419.388 48.3457 418.165 49.4833C416.983 50.5787 415.464 51.1264 413.608 51.1264Z" fill="#3165F5" class="svg-elem-14">
	</path>
</svg>
