<svg width="133" height="44" viewBox="0 0 133 44" fill="none" xmlns="http://www.w3.org/2000/svg">
<path d="M17.3764 18.2313C18.1588 17.7658 18.9955 17.385 19.8742 17.1008C20.9998 16.7442 22.1915 16.5507 23.4314 16.5507C24.6111 16.5507 25.7547 16.726 26.8261 17.0464C26.9706 16.3089 27.0428 15.5472 27.0428 14.7673C27.0428 14.6162 27.0368 14.459 27.0307 14.3079C25.8811 14.0117 24.6713 13.8545 23.4254 13.8545C22.1193 13.8545 20.8553 14.0298 19.6515 14.3502C18.7186 14.6041 17.8218 14.9426 16.9731 15.3658C13.1571 17.2701 10.2921 20.8126 9.29297 25.0746C10.0754 25.528 10.9181 25.8968 11.8029 26.1628C12.471 22.8016 14.5415 19.9361 17.3764 18.2313Z" fill="#0063AA"/>
<path d="M37.9458 27.8861C37.9097 26.9068 37.7773 25.9516 37.5546 25.0328C36.5253 20.7345 33.6001 17.1739 29.7179 15.2998C29.6818 16.2731 29.5554 17.2283 29.3387 18.1411C32.2519 19.8277 34.3826 22.7295 35.0507 26.1572C35.1951 26.9008 35.2734 27.6625 35.2734 28.4484C35.2734 28.5995 35.2674 28.7506 35.2613 28.9018C35.0266 35.2614 29.8202 40.3395 23.4281 40.3395C17.042 40.3395 11.8357 35.2614 11.5949 28.9078C10.662 28.666 9.76516 28.3395 8.91048 27.9285C8.90446 28.1038 8.89844 28.2731 8.89844 28.4484C8.89844 36.5068 15.3989 43.0357 23.4221 43.0357C31.4453 43.0357 37.9458 36.5068 37.9458 28.4484C37.9578 28.261 37.9578 28.0736 37.9458 27.8861Z" fill="#0063AA"/>
<path d="M15.2151 26.6689C14.0354 26.6689 12.8918 26.4936 11.8204 26.1732C10.9356 25.9072 10.093 25.5384 9.31051 25.085C5.76536 23.0296 3.37585 19.1848 3.37585 14.7778C3.37585 8.21256 8.67852 2.88664 15.2151 2.88664C17.406 2.88664 19.4524 3.48513 21.2099 4.52492C21.872 3.85389 22.6003 3.24936 23.3828 2.72342C21.0534 1.12141 18.2426 0.19043 15.2151 0.19043C7.19185 0.19043 0.691406 6.71937 0.691406 14.7778C0.691406 20.5692 4.05599 25.5747 8.9253 27.9324C9.77397 28.3435 10.6768 28.6759 11.6097 28.9117C12.7594 29.2079 13.9692 29.3651 15.2151 29.3651C18.2185 29.3651 21.0173 28.4462 23.3286 26.8744C22.5461 26.3425 21.8239 25.7319 21.1618 25.0609C19.4163 26.0825 17.3819 26.6689 15.2151 26.6689Z" fill="#EB2725"/>
<path d="M25.5488 4.53027C24.7603 4.98972 24.032 5.53984 23.376 6.16251C25.5368 8.23001 26.9211 11.1136 27.0415 14.3176C27.0475 14.4688 27.0535 14.6259 27.0535 14.7771C27.0535 15.5569 26.9753 16.3186 26.8368 17.0562C26.3553 19.5468 25.1034 21.7594 23.3398 23.4279C23.9959 24.0566 24.7242 24.6068 25.5067 25.0662C27.3665 23.1861 28.7208 20.8043 29.3528 18.1383C29.5694 17.2194 29.6958 16.2703 29.7319 15.297C29.738 15.1217 29.744 14.9524 29.744 14.7771C29.7319 10.7811 28.1369 7.16603 25.5488 4.53027Z" fill="#EB2725"/>
<path d="M31.5011 26.7045C29.3102 26.7045 27.2638 26.106 25.5063 25.0662C24.7238 24.6007 23.9955 24.0506 23.3394 23.4279C21.6 21.7654 20.3601 19.571 19.8846 17.1045C18.9998 17.3826 18.1632 17.7634 17.3867 18.235C18.0127 20.8586 19.3489 23.2042 21.1726 25.0601C21.8347 25.7312 22.557 26.3417 23.3394 26.8737C25.6688 28.4697 28.4796 29.4007 31.5071 29.4007C32.8132 29.4007 34.0772 29.2253 35.281 28.9049C35.287 28.7538 35.293 28.6027 35.293 28.4515C35.293 27.6657 35.2148 26.9039 35.0703 26.1604C33.9328 26.511 32.741 26.7045 31.5011 26.7045Z" fill="#FDE002"/>
<path d="M31.502 0.225586C28.4986 0.225586 25.6998 1.14447 23.3885 2.71626C22.6061 3.24824 21.8778 3.85277 21.2157 4.51776C18.5974 7.15352 16.9844 10.7928 16.9844 14.8129C16.9844 15.0003 16.9904 15.1938 16.9964 15.3812C17.8451 14.958 18.7419 14.6134 19.6748 14.3656C19.7952 11.1374 21.1976 8.24167 23.3825 6.16813C24.0386 5.54546 24.7668 4.99534 25.5553 4.5359C27.3068 3.51424 29.3352 2.92784 31.508 2.92784C38.0446 2.92784 43.3473 8.25377 43.3473 14.819C43.3473 19.1595 41.03 22.962 37.5691 25.0356C37.7918 25.9544 37.9242 26.9096 37.9603 27.8889C42.7454 25.501 46.0317 20.5439 46.0317 14.819C46.0197 6.75453 39.5192 0.225586 31.502 0.225586Z" fill="#FDE002"/>
<path d="M49.6445 0.303711H65.2155V3.03015H59.9911V31.4431H54.869V3.03015H49.6445V0.303711Z" fill="white"/>
<path d="M83.8062 10.0548H78.6179V3.03015H73.4958V28.6683H78.6179V21.7464H83.8062V26.758C83.8062 28.5112 82.7168 29.8532 80.5379 30.7963C79.5448 31.2255 78.5095 31.4431 77.4261 31.4431H74.3805C72.6712 31.4431 71.2086 30.9232 70.0048 29.8834C68.8552 28.8799 68.2773 27.7313 68.2773 26.4316V5.03115C68.2773 3.32032 69.3547 1.96617 71.5095 0.968696C72.4786 0.521342 73.4837 0.303711 74.5431 0.303711H77.5345C79.7976 0.303711 81.5972 1.1561 82.9334 2.85483C83.5173 3.60445 83.8122 4.37221 83.8122 5.1581V10.0548H83.8062Z" fill="white"/>
<path d="M87.5469 26.434V4.96102C87.5469 3.26833 88.6664 1.91418 90.8994 0.904614C91.8986 0.451216 92.9097 0.227539 93.933 0.227539H96.816C99.1213 0.227539 100.945 1.07993 102.293 2.78471C102.889 3.54642 103.184 4.32626 103.184 5.12424V26.7604C103.184 28.5498 102.113 29.8979 99.982 30.8108C98.9888 31.234 97.9355 31.4455 96.816 31.4455H93.7042C91.4231 31.4455 89.6595 30.569 88.3955 28.8098C87.8298 28.036 87.5469 27.244 87.5469 26.434ZM92.7713 3.04466V28.6707H97.9054V3.04466H92.7713Z" fill="white"/>
<path d="M132.661 31.4431H127.437V3.03015H122.2V31.3645H117.03V3.03015H111.908V31.3645H106.684V5.23064C106.684 3.48355 107.725 2.08708 109.807 1.02915C110.758 0.545524 111.782 0.303711 112.895 0.303711H126.299C128.55 0.303711 130.368 1.12587 131.752 2.76415C132.366 3.50168 132.667 4.25735 132.667 5.03115V31.4431H132.661Z" fill="white"/>
<path d="M54.796 37.7858H52.9421V42.9545H52.1837V37.7858H50.3359V37.1631H54.796V37.7858Z" fill="white"/>
<path d="M61.2055 40.2764H58.7076V42.3318H61.6147V42.9545H57.9492V37.1631H61.5726V37.7858H58.7076V39.6538H61.2055V40.2764Z" fill="white"/>
<path d="M69.0961 41.1172C69.0239 41.7278 68.8012 42.2053 68.422 42.5378C68.0428 42.8703 67.5372 43.0396 66.9112 43.0396C66.2311 43.0396 65.6834 42.7917 65.2741 42.3021C64.8648 41.8124 64.6602 41.1535 64.6602 40.3313V39.7751C64.6602 39.2371 64.7565 38.7656 64.9491 38.3545C65.1417 37.9434 65.4125 37.6351 65.7616 37.4114C66.1107 37.1938 66.52 37.085 66.9835 37.085C67.5974 37.085 68.0849 37.2542 68.4581 37.5988C68.8253 37.9434 69.0419 38.4149 69.1021 39.0255H68.3377C68.2715 38.56 68.1271 38.2275 67.9104 38.022C67.6877 37.8164 67.3807 37.7076 66.9835 37.7076C66.4959 37.7076 66.1167 37.889 65.8399 38.2517C65.563 38.6144 65.4246 39.1283 65.4246 39.7933V40.3555C65.4246 40.9842 65.557 41.4859 65.8158 41.8547C66.0746 42.2235 66.4418 42.4109 66.9112 42.4109C67.3326 42.4109 67.6576 42.3142 67.8863 42.1207C68.115 41.9273 68.2595 41.5948 68.3377 41.1172H69.0961Z" fill="white"/>
<path d="M76.8713 42.9545H76.1069V40.2764H73.1998V42.9545H72.4414V37.1631H73.1998V39.6538H76.1069V37.1631H76.8713V42.9545Z" fill="white"/>
<path d="M88.0022 40.3973H85.5826V42.9545H84.8242V37.1631H88.3995V37.7858H85.5886V39.7686H88.0082V40.3973H88.0022Z" fill="white"/>
<path d="M96.039 40.2468C96.039 40.8151 95.9427 41.3108 95.7561 41.734C95.5696 42.1572 95.2987 42.4776 94.9496 42.7012C94.6005 42.9249 94.1912 43.0337 93.7278 43.0337C93.2763 43.0337 92.8731 42.9189 92.518 42.6952C92.1689 42.4715 91.892 42.1511 91.6994 41.734C91.5068 41.3169 91.4045 40.8393 91.3984 40.2892V39.872C91.3984 39.3159 91.4947 38.8202 91.6873 38.397C91.8799 37.9678 92.1508 37.6413 92.5059 37.4176C92.861 37.1879 93.2643 37.0791 93.7157 37.0791C94.1792 37.0791 94.5825 37.194 94.9376 37.4176C95.2927 37.6413 95.5635 37.9678 95.7501 38.3909C95.9427 38.8141 96.033 39.3098 96.033 39.8781V40.2468H96.039ZM95.2867 39.872C95.2867 39.1829 95.1482 38.6569 94.8774 38.2882C94.6005 37.9194 94.2153 37.738 93.7217 37.738C93.2402 37.738 92.861 37.9194 92.5842 38.2882C92.3073 38.6569 92.1689 39.1647 92.1568 39.8176V40.2408C92.1568 40.9058 92.2953 41.4317 92.5721 41.8126C92.849 42.1934 93.2342 42.3808 93.7217 42.3808C94.2153 42.3808 94.5945 42.1995 94.8653 41.8428C95.1362 41.4861 95.2746 40.9662 95.2806 40.2952V39.872H95.2867Z" fill="white"/>
<path d="M101.591 40.6089H100.237V42.9545H99.4727V37.1631H101.381C102.031 37.1631 102.53 37.3142 102.879 37.6104C103.228 37.9067 103.403 38.3419 103.403 38.9102C103.403 39.2729 103.307 39.5873 103.114 39.8533C102.922 40.1192 102.651 40.3187 102.302 40.4517L103.656 42.9122V42.9605H102.837L101.591 40.6089ZM100.237 39.9862H101.405C101.784 39.9862 102.085 39.8895 102.308 39.69C102.53 39.4905 102.645 39.2306 102.645 38.8981C102.645 38.5414 102.536 38.2633 102.326 38.0759C102.115 37.8825 101.808 37.7858 101.405 37.7858H100.237V39.9862Z" fill="white"/>
<path d="M111.839 42.3318H114.571V42.9545H111.074V37.1631H111.839V42.3318Z" fill="white"/>
<path d="M118.555 42.9545H117.797V37.1631H118.555V42.9545Z" fill="white"/>
<path d="M125.424 40.3973H123.004V42.9545H122.246V37.1631H125.821V37.7858H123.01V39.7686H125.43V40.3973H125.424Z" fill="white"/>
<path d="M132.284 40.2764H129.786V42.3318H132.693V42.9545H129.027V37.1631H132.651V37.7858H129.786V39.6538H132.284V40.2764Z" fill="white"/>
</svg>
